<svg className="m-2 h-6 md:h-8" xmlns="http://www.w3.org/2000/svg" x="0px" y="0px" width="34" height="30" viewBox="0 0 48 48">
<circle cx="24" cy="25" r="20"></circle><circle cx="24" cy="23" r="19" fill="#fff"></circle><path d="M24,43C12.972,43,4,34.028,4,23S12.972,3,24,3s20,8.972,20,20S35.028,43,24,43z M24,5C14.075,5,6,13.075,6,23	s8.075,18,18,18s18-8.075,18-18S33.925,5,24,5z"></path><circle cx="24" cy="23" r="2"></circle><circle cx="24" cy="9" r="1"></circle><circle cx="24" cy="37" r="1"></circle><circle cx="38" cy="23" r="1"></circle><circle cx="10" cy="24" r="1"></circle><path d="M33.707,13.293c-0.391-0.391-1.023-0.391-1.414,0l-9,9c-0.391,0.391-0.391,1.023,0,1.414l5,5C28.488,28.902,28.744,29,29,29	s0.512-0.098,0.707-0.293c0.391-0.391,0.391-1.023,0-1.414L25.414,23l8.293-8.293C34.098,14.316,34.098,13.684,33.707,13.293z"></path>
</svg>